<svg width="33" height="33" viewBox="0 0 33 33" fill="none" xmlns="http://www.w3.org/2000/svg">
    <path d="M21.5419 10.2136C21.8719 9.33593 21.8719 8.30476 21.8719 7.41796C21.8719 3.12832 19.294 1.37305 14.9975 1.37305C12.706 1.37305 11.5878 2.14757 10.8728 3.20623C9.72708 3.66452 8.12305 5.11732 8.12305 7.78918C8.12305 8.74243 8.12305 9.33593 8.45302 10.2136" stroke="#004165" stroke-width="1.3" stroke-linecap="round" stroke-linejoin="round"></path>
    <path d="M21.4136 10.0811C21.4628 10.1187 21.506 10.1635 21.5419 10.214C21.6748 10.3858 21.8719 10.7639 21.8719 11.4559C21.8719 13.5183 20.4099 13.646 20.4099 13.646C20.1487 14.9573 19.6217 16.2451 18.6638 17.1755C18.3896 17.4462 18.0815 17.6803 17.7472 17.8721C17.0277 18.2891 16.7734 18.7887 14.9975 18.7887C13.2216 18.7887 12.9672 18.2891 12.2477 17.8721C11.9135 17.6803 11.6054 17.4462 11.3311 17.1755C10.3733 16.2451 9.84624 14.9573 9.58501 13.646C9.58501 13.646 8.12305 13.5183 8.12305 11.4559C8.12305 10.7639 8.32011 10.3881 8.45302 10.214C8.48891 10.1635 8.53216 10.1187 8.58134 10.0811" stroke="#004165" stroke-width="1.3" stroke-linecap="round" stroke-linejoin="round"></path>
    <path d="M8.58398 10.0807C10.7609 10.0807 9.59682 5.95605 12.2503 5.95605C13.6252 5.95605 14.1408 6.41435 15.0001 6.41435C15.8594 6.41435 16.375 5.95605 17.7499 5.95605C20.4034 5.95605 19.2393 10.0807 21.4162 10.0807" stroke="#004165" stroke-width="1.3" stroke-linecap="round" stroke-linejoin="round"></path>
    <path d="M18.666 17.1758V19.0617C18.666 19.5337 18.8493 19.9599 19.1564 20.3495C19.6239 20.9315 20.3755 21.4242 21.2279 21.8252C21.5576 21.981 21.9022 22.1242 22.2509 22.2553" stroke="#004165" stroke-width="1.3" stroke-linecap="round" stroke-linejoin="round"></path>
    <path d="M11.3325 17.1758V19.0594C11.3325 19.5314 11.1492 19.9576 10.8421 20.3472C10.3747 20.9292 9.62305 21.4196 8.77062 21.8229C7.60197 22.3774 6.24542 22.7716 5.18675 23.0259C1.23396 23.9792 1.25 26.3577 1.25 28.8692L1.25 31.5661" stroke="#004165" stroke-width="1.3" stroke-linecap="round" stroke-linejoin="round"></path>
    <path d="M19.1587 20.3467C18.6788 21.0366 18.0621 21.6204 17.347 22.0619C16.632 22.5034 15.8337 22.7931 15.002 22.9131L16.5922 24.8196L17.2934 25.6629" stroke="#004165" stroke-width="1.3" stroke-linecap="round" stroke-linejoin="round"></path>
    <path d="M10.8438 20.3467C11.3237 21.0366 11.9403 21.6204 12.6554 22.0619C13.3705 22.5034 14.1687 22.7931 15.0005 22.9131L13.4102 24.8196L12.709 25.6629" stroke="#004165" stroke-width="1.3" stroke-linecap="round" stroke-linejoin="round"></path>
    <path d="M16.5917 24.8203L15.918 26.4459L16.5917 31.6575" stroke="#004165" stroke-width="1.3" stroke-linecap="round" stroke-linejoin="round"></path>
    <path d="M13.4082 24.8203L14.0819 26.4459L13.4082 31.6575" stroke="#004165" stroke-width="1.3" stroke-linecap="round" stroke-linejoin="round"></path>
    <path d="M14.084 26.5791H15.9172" stroke="#004165" stroke-width="1.3" stroke-linecap="round" stroke-linejoin="round"></path>
    <path d="M17.293 25.6634C18.8658 24.6818 20.2086 23.3727 21.2297 21.8252" stroke="#004165" stroke-width="1.3" stroke-linecap="round" stroke-linejoin="round"></path>
    <path d="M12.7082 25.6634C11.1354 24.6818 9.79261 23.3727 8.77148 21.8252" stroke="#004165" stroke-width="1.3" stroke-linecap="round" stroke-linejoin="round"></path>
    <mask id="mask0_844_8664" style="mask-type:alpha" maskUnits="userSpaceOnUse" x="20" y="20" width="13" height="13">
        <path d="M30.8961 27.3248L31.0437 27.3279C31.1433 27.3321 31.245 27.341 31.3479 27.356L31.4591 27.3743C31.8863 27.4531 32.1066 27.5985 32.2353 27.7013L32.2768 27.7366C32.4797 27.9213 32.6065 28.221 32.3785 28.5305L32.3529 28.5638C32.0008 29.0107 29.7992 31.4987 29.2052 32.1553L29.1753 32.1861C29.0772 32.2801 28.9045 32.3831 28.6868 32.3392L28.6102 32.3179C28.3274 32.2202 28.0288 31.9134 27.9054 31.6875L27.8649 31.6116C27.7874 31.4627 27.7298 31.325 27.6759 31.1009L27.6445 30.9561C27.4788 30.0897 27.7102 29.2703 28.1276 28.7169L28.2279 28.5914C28.6414 28.0992 29.1949 27.7257 29.6495 27.5537C29.942 27.4423 30.3851 27.3248 30.8961 27.3248ZM22.1031 27.3248L22.2542 27.3282C22.7012 27.3482 23.0865 27.4536 23.3509 27.5549L23.466 27.6018C23.9336 27.8059 24.4831 28.2054 24.8716 28.7169L24.9397 28.8116C25.3377 29.3939 25.5339 30.2311 25.3246 31.1009L25.2968 31.2066C25.2407 31.4051 25.1796 31.5321 25.095 31.6875L25.0574 31.7509C24.9048 31.9891 24.5932 32.2819 24.3149 32.3392L24.244 32.3486C24.0365 32.3618 23.8765 32.2454 23.7965 32.1553L23.7417 32.0946C23.0587 31.3364 20.8668 28.8564 20.6244 28.5293L20.5826 28.4675C20.3969 28.1599 20.5533 27.8701 20.7651 27.7013L20.799 27.6747C20.943 27.5656 21.19 27.423 21.6526 27.356C21.8068 27.3335 21.9574 27.3248 22.1031 27.3248ZM26.4996 20.623L26.6224 20.6253C28.3748 20.6885 29.7729 22.1005 29.7729 23.8338L29.7694 23.9848C29.7366 24.6853 29.4766 25.3263 29.0607 25.8388L28.9722 25.9384C28.406 26.5483 27.7426 26.7704 27.4636 26.7644L27.3897 26.7596C27.0237 26.7156 27.0978 26.3904 27.1303 26.2503L27.1506 26.1809C27.1911 26.0595 27.2646 25.912 27.3562 25.7775L27.4101 25.6952C27.5481 25.4726 27.6388 25.2248 27.6388 24.9158L27.635 24.8321C27.583 24.2541 27.0109 23.8438 26.4996 23.8438L26.4264 23.8466C25.9116 23.8851 25.3628 24.3224 25.3628 24.9158L25.367 25.0289C25.389 25.3232 25.4963 25.5607 25.6455 25.7775L25.6976 25.8595C25.7806 25.9976 25.8434 26.1409 25.8701 26.2503L25.8768 26.2789C25.9136 26.4412 25.9608 26.7574 25.5356 26.7644L25.4886 26.7636C25.1715 26.7461 24.4944 26.49 23.9422 25.8388L23.8552 25.7271C23.4608 25.1966 23.2275 24.5424 23.2275 23.8338C23.2275 22.0602 24.6914 20.623 26.4996 20.623Z" fill="white"></path>
    </mask>
    <g mask="url(#mask0_844_8664)">
        <path d="M30.8961 27.3248L31.0437 27.3279C31.1433 27.3321 31.245 27.341 31.3479 27.356L31.4591 27.3743C31.8863 27.4531 32.1066 27.5985 32.2353 27.7013L32.2768 27.7366C32.4797 27.9213 32.6065 28.221 32.3785 28.5305L32.3529 28.5638C32.0008 29.0107 29.7992 31.4987 29.2052 32.1553L29.1753 32.1861C29.0772 32.2801 28.9045 32.3831 28.6868 32.3392L28.6102 32.3179C28.3274 32.2202 28.0288 31.9134 27.9054 31.6875L27.8649 31.6116C27.7874 31.4627 27.7298 31.325 27.6759 31.1009L27.6445 30.9561C27.4788 30.0897 27.7102 29.2703 28.1276 28.7169L28.2279 28.5914C28.6414 28.0992 29.1949 27.7257 29.6495 27.5537C29.942 27.4423 30.3851 27.3248 30.8961 27.3248ZM22.1031 27.3248L22.2542 27.3282C22.7012 27.3482 23.0865 27.4536 23.3509 27.5549L23.466 27.6018C23.9336 27.8059 24.4831 28.2054 24.8716 28.7169L24.9397 28.8116C25.3377 29.3939 25.5339 30.2311 25.3246 31.1009L25.2968 31.2066C25.2407 31.4051 25.1796 31.5321 25.095 31.6875L25.0574 31.7509C24.9048 31.9891 24.5932 32.2819 24.3149 32.3392L24.244 32.3486C24.0365 32.3618 23.8765 32.2454 23.7965 32.1553L23.7417 32.0946C23.0587 31.3364 20.8668 28.8564 20.6244 28.5293L20.5826 28.4675C20.3969 28.1599 20.5533 27.8701 20.7651 27.7013L20.799 27.6747C20.943 27.5656 21.19 27.423 21.6526 27.356C21.8068 27.3335 21.9574 27.3248 22.1031 27.3248ZM26.4996 20.623L26.6224 20.6253C28.3748 20.6885 29.7729 22.1005 29.7729 23.8338L29.7694 23.9848C29.7366 24.6853 29.4766 25.3263 29.0607 25.8388L28.9722 25.9384C28.406 26.5483 27.7426 26.7704 27.4636 26.7644L27.3897 26.7596C27.0237 26.7156 27.0978 26.3904 27.1303 26.2503L27.1506 26.1809C27.1911 26.0595 27.2646 25.912 27.3562 25.7775L27.4101 25.6952C27.5481 25.4726 27.6388 25.2248 27.6388 24.9158L27.635 24.8321C27.583 24.2541 27.0109 23.8438 26.4996 23.8438L26.4264 23.8466C25.9116 23.8851 25.3628 24.3224 25.3628 24.9158L25.367 25.0289C25.389 25.3232 25.4963 25.5607 25.6455 25.7775L25.6976 25.8595C25.7806 25.9976 25.8434 26.1409 25.8701 26.2503L25.8768 26.2789C25.9136 26.4412 25.9608 26.7574 25.5356 26.7644L25.4886 26.7636C25.1715 26.7461 24.4944 26.49 23.9422 25.8388L23.8552 25.7271C23.4608 25.1966 23.2275 24.5424 23.2275 23.8338C23.2275 22.0602 24.6914 20.623 26.4996 20.623Z" fill="#004165"></path>
    </g>
</svg>