<svg width="32" height="32" viewBox="0 0 32 32" fill="none" xmlns="http://www.w3.org/2000/svg">
    <path fill-rule="evenodd" clip-rule="evenodd" d="M21.0025 31C16.1875 31 11.005 30.0241 11.005 27.8819L10.9966 25.9975C6.1825 25.9975 1 25.0216 1 22.8784V4.11906C1 1.97594 6.1825 1 10.9975 1C15.8125 1 20.995 1.97594 20.995 4.11906V17.2591H21.0025C25.8175 17.2591 31 18.235 31 20.3772V27.8809C31 30.0241 25.8175 31 21.0025 31ZM12.2406 25.7397V27.8819C12.2406 28.4453 15.2219 29.7653 21.0034 29.7653C26.785 29.7653 29.7663 28.4444 29.7663 27.8819V25.7397C27.9437 26.7672 24.3831 27.2481 21.0034 27.2481C17.6228 27.2481 14.0631 26.7672 12.2406 25.7397ZM12.2406 24.1291V21.9878C14.0631 23.0153 17.6228 23.4962 21.0034 23.4962C24.3831 23.4962 27.9437 23.0153 29.7663 21.9878V24.1291C29.7663 24.6916 26.785 26.0125 21.0034 26.0125C15.2219 26.0125 12.2406 24.6925 12.2406 24.1291ZM2.23469 20.7372V22.8794C2.23469 23.4428 5.21594 24.7628 10.9975 24.7628H11.0059L10.9975 22.2456C7.61781 22.2456 4.05719 21.7647 2.23469 20.7372ZM12.2397 20.3772C12.2397 19.8138 15.2209 18.4937 21.0025 18.4937C26.7841 18.4937 29.7653 19.8138 29.7653 20.3772C29.7653 20.9406 26.7841 22.2616 21.0025 22.2616C15.2209 22.2616 12.2397 20.9406 12.2397 20.3772ZM2.23469 16.9853V19.1266C2.23469 19.69 5.21594 21.01 10.9975 21.01H11.0059V20.3772C11.0059 19.57 11.7419 18.9278 12.9175 18.4422C12.28 18.4769 11.6359 18.4937 10.9984 18.4937C7.61781 18.4937 4.05719 18.0128 2.23469 16.9853ZM19.0834 17.3106C19.3291 17.2084 19.5559 17.1006 19.7603 16.9853V17.2806C19.5344 17.2881 19.3084 17.2984 19.0834 17.3106ZM2.23469 13.2334V15.3747C2.23469 15.9381 5.21594 17.2591 10.9975 17.2591C16.7791 17.2591 19.7603 15.9381 19.7603 15.3747V13.2334C17.9378 14.2609 14.3772 14.7419 10.9975 14.7419C7.61781 14.7419 4.05719 14.2609 2.23469 13.2334ZM2.23469 11.6228V9.48156C4.05719 10.5091 7.61781 10.9891 10.9975 10.99C14.3772 10.99 17.9378 10.5091 19.7603 9.48156V11.6228C19.7603 12.1863 16.7791 13.5072 10.9975 13.5072C5.21594 13.5072 2.23469 12.1863 2.23469 11.6228ZM2.23469 5.72875V7.87C2.23469 8.43344 5.21594 9.75438 10.9975 9.75438C16.7791 9.75438 19.7603 8.43344 19.7603 7.87V5.72875C17.9378 6.75625 14.3772 7.23719 10.9975 7.23719C7.61781 7.23719 4.05719 6.75625 2.23469 5.72875ZM2.23469 4.11906C2.23469 3.55469 5.21594 2.23469 10.9975 2.23469C16.7781 2.23469 19.7603 3.55563 19.7603 4.11906C19.7603 4.68344 16.7791 6.00344 10.9975 6.00344C5.21594 6.00344 2.23469 4.6825 2.23469 4.11906Z" fill="#004165"></path>
    <path fill-rule="evenodd" clip-rule="evenodd" d="M21.0025 31C16.1875 31 11.005 30.0241 11.005 27.8819L10.9966 25.9975C6.1825 25.9975 1 25.0216 1 22.8784V4.11906C1 1.97594 6.1825 1 10.9975 1C15.8125 1 20.995 1.97594 20.995 4.11906V17.2591H21.0025C25.8175 17.2591 31 18.235 31 20.3772V27.8809C31 30.0241 25.8175 31 21.0025 31ZM12.2406 25.7397V27.8819C12.2406 28.4453 15.2219 29.7653 21.0034 29.7653C26.785 29.7653 29.7663 28.4444 29.7663 27.8819V25.7397C27.9437 26.7672 24.3831 27.2481 21.0034 27.2481C17.6228 27.2481 14.0631 26.7672 12.2406 25.7397ZM12.2406 24.1291V21.9878C14.0631 23.0153 17.6228 23.4962 21.0034 23.4962C24.3831 23.4962 27.9437 23.0153 29.7663 21.9878V24.1291C29.7663 24.6916 26.785 26.0125 21.0034 26.0125C15.2219 26.0125 12.2406 24.6925 12.2406 24.1291ZM2.23469 20.7372V22.8794C2.23469 23.4428 5.21594 24.7628 10.9975 24.7628H11.0059L10.9975 22.2456C7.61781 22.2456 4.05719 21.7647 2.23469 20.7372ZM12.2397 20.3772C12.2397 19.8138 15.2209 18.4937 21.0025 18.4937C26.7841 18.4937 29.7653 19.8138 29.7653 20.3772C29.7653 20.9406 26.7841 22.2616 21.0025 22.2616C15.2209 22.2616 12.2397 20.9406 12.2397 20.3772ZM2.23469 16.9853V19.1266C2.23469 19.69 5.21594 21.01 10.9975 21.01H11.0059V20.3772C11.0059 19.57 11.7419 18.9278 12.9175 18.4422C12.28 18.4769 11.6359 18.4937 10.9984 18.4937C7.61781 18.4937 4.05719 18.0128 2.23469 16.9853ZM19.0834 17.3106C19.3291 17.2084 19.5559 17.1006 19.7603 16.9853V17.2806C19.5344 17.2881 19.3084 17.2984 19.0834 17.3106ZM2.23469 13.2334V15.3747C2.23469 15.9381 5.21594 17.2591 10.9975 17.2591C16.7791 17.2591 19.7603 15.9381 19.7603 15.3747V13.2334C17.9378 14.2609 14.3772 14.7419 10.9975 14.7419C7.61781 14.7419 4.05719 14.2609 2.23469 13.2334ZM2.23469 11.6228V9.48156C4.05719 10.5091 7.61781 10.9891 10.9975 10.99C14.3772 10.99 17.9378 10.5091 19.7603 9.48156V11.6228C19.7603 12.1863 16.7791 13.5072 10.9975 13.5072C5.21594 13.5072 2.23469 12.1863 2.23469 11.6228ZM2.23469 5.72875V7.87C2.23469 8.43344 5.21594 9.75438 10.9975 9.75438C16.7791 9.75438 19.7603 8.43344 19.7603 7.87V5.72875C17.9378 6.75625 14.3772 7.23719 10.9975 7.23719C7.61781 7.23719 4.05719 6.75625 2.23469 5.72875ZM2.23469 4.11906C2.23469 3.55469 5.21594 2.23469 10.9975 2.23469C16.7781 2.23469 19.7603 3.55563 19.7603 4.11906C19.7603 4.68344 16.7791 6.00344 10.9975 6.00344C5.21594 6.00344 2.23469 4.6825 2.23469 4.11906Z" fill="#004165"></path>
    <line x1="13.3594" y1="29.4287" x2="13.3594" y2="28.2859" stroke="#004165" stroke-linecap="round"></line>
    <line x1="15.5" y1="29.4287" x2="15.5" y2="28.2859" stroke="#004165" stroke-linecap="round"></line>
    <path d="M17.6094 29.9287L17.6094 29.393" stroke="#004165" stroke-linecap="round"></path>
    <line x1="3.71484" y1="24.0723" x2="3.71484" y2="22.9294" stroke="#004165" stroke-linecap="round"></line>
    <line x1="5.85937" y1="24.6074" x2="5.85938" y2="23.4646" stroke="#004165" stroke-linecap="round"></line>
    <path d="M7.96484 25.1074L7.96484 24.5717" stroke="#004165" stroke-linecap="round"></path>
    <line x1="17.6445" y1="26.2148" x2="17.6445" y2="25.072" stroke="#004165" stroke-linecap="round"></line>
    <line x1="19.7852" y1="26.2148" x2="19.7852" y2="25.072" stroke="#004165" stroke-linecap="round"></line>
    <path d="M21.8945 26.1787L21.8945 25.643" stroke="#004165" stroke-linecap="round"></path>
    <line x1="3.71484" y1="16.5723" x2="3.71484" y2="15.4294" stroke="#004165" stroke-linecap="round"></line>
    <line x1="5.85937" y1="17.1074" x2="5.85938" y2="15.9646" stroke="#004165" stroke-linecap="round"></line>
    <path d="M7.96484 17.6074L7.96484 17.0717" stroke="#004165" stroke-linecap="round"></path>
    <line x1="6.92969" y1="10.1426" x2="6.92969" y2="8.99972" stroke="#004165" stroke-linecap="round"></line>
    <line x1="9.07031" y1="10.1426" x2="9.07031" y2="8.99972" stroke="#004165" stroke-linecap="round"></line>
    <path d="M11.1797 10.1074L11.1797 9.57171" stroke="#004165" stroke-linecap="round"></path>
</svg>