<svg width="31" height="25" viewBox="0 0 31 25" fill="none" xmlns="http://www.w3.org/2000/svg">
    <path d="M28.2051 7.44531H7.09264C6.10087 7.44531 5.29688 8.23624 5.29688 9.21189V21.79C5.29688 22.7657 6.10087 23.5566 7.09264 23.5566H28.2051C29.1968 23.5566 30.0008 22.7657 30.0008 21.79V9.21189C30.0008 8.23624 29.1968 7.44531 28.2051 7.44531Z" stroke="#004165" stroke-width="1.3" stroke-linecap="round" stroke-linejoin="round"></path>
    <path d="M8.36133 20.334H10.6722" stroke="#004165" stroke-width="1.3" stroke-linecap="round" stroke-linejoin="round"></path>
    <path d="M13.6445 20.334H15.9568" stroke="#004165" stroke-width="1.3" stroke-linecap="round" stroke-linejoin="round"></path>
    <path d="M19.1348 20.334H21.4456" stroke="#004165" stroke-width="1.3" stroke-linecap="round" stroke-linejoin="round"></path>
    <path d="M24.627 20.334H26.9378" stroke="#004165" stroke-width="1.3" stroke-linecap="round" stroke-linejoin="round"></path>
    <path d="M26.062 10.667H23.1953C22.8005 10.667 22.4805 11.0081 22.4805 11.4289V13.1274C22.4805 13.5481 22.8005 13.8892 23.1953 13.8892H26.062C26.4568 13.8892 26.7768 13.5481 26.7768 13.1274V11.4289C26.7768 11.0081 26.4568 10.667 26.062 10.667Z" stroke="#004165" stroke-width="1.3" stroke-linecap="round" stroke-linejoin="round"></path>
    <path d="M22.8413 4.22266H19.9746C19.5798 4.22266 19.2598 4.56376 19.2598 4.98454V6.68303C19.2598 7.10381 19.5798 7.44491 19.9746 7.44491H22.8413C23.2361 7.44491 23.5561 7.10381 23.5561 6.68303V4.98454C23.5561 4.56376 23.2361 4.22266 22.8413 4.22266Z" stroke="#004165" stroke-width="1.3" stroke-linecap="round" stroke-linejoin="round"></path>
    <path d="M4.86671 17.695H2.87385C1.83895 17.695 1 16.8754 1 15.8644V2.83059C1 1.81958 1.83895 1 2.87385 1H24.9042C25.9391 1 26.778 1.81958 26.778 2.83059V6.90747" stroke="#004165" stroke-width="1.3" stroke-linecap="round" stroke-linejoin="round"></path>
    <path d="M3.56641 13.8418L4.85064 13.8418" stroke="#004165" stroke-width="1.3" stroke-linecap="round" stroke-linejoin="round"></path>
</svg>