<svg width="33" height="32" viewBox="0 0 33 32" fill="none" xmlns="http://www.w3.org/2000/svg">
    <path d="M9.33255 24.58C13.8245 24.58 17.4659 20.8505 17.4659 16.25C17.4659 11.6494 13.8245 7.91992 9.33255 7.91992C4.84064 7.91992 1.19922 11.6494 1.19922 16.25C1.19922 20.8505 4.84064 24.58 9.33255 24.58Z" stroke="#004165" stroke-width="1.3" stroke-linecap="round" stroke-linejoin="round"></path>
    <path d="M17.7598 22.0758C19.2339 23.6169 21.2927 24.58 23.5649 24.58C28.0586 24.58 31.6983 20.8523 31.6983 16.25C31.6983 11.6476 28.0586 7.91992 23.5649 7.91992C21.2876 7.91992 19.2339 8.87788 17.7598 10.4241" stroke="#004165" stroke-width="1.3" stroke-linecap="round" stroke-linejoin="round"></path>
    <path d="M11.8743 14.4277C11.8743 14.4277 11.8743 12.6055 9.33268 12.6055C7.29935 12.6055 6.79102 13.5166 6.79102 14.4277C6.79102 17.161 11.8743 15.3388 11.8743 18.0721C11.8743 18.9832 11.366 19.8943 9.33268 19.8943C6.79102 19.8943 6.79102 18.0721 6.79102 18.0721" stroke="#004165" stroke-width="1.3" stroke-linecap="round" stroke-linejoin="round"></path>
    <path d="M9.33203 12.6058V11.0439" stroke="#004165" stroke-width="1.3" stroke-linecap="round" stroke-linejoin="round"></path>
    <path d="M9.33203 21.4564V19.8945" stroke="#004165" stroke-width="1.3" stroke-linecap="round" stroke-linejoin="round"></path>
    <path d="M26.1073 12.6056C26.1073 12.6056 25.599 12.085 23.5656 12.085C21.5323 12.085 20.5156 13.9488 20.5156 16.25C20.5156 18.5512 21.5323 20.415 23.5656 20.415C25.599 20.415 26.1073 19.8944 26.1073 19.8944" stroke="#004165" stroke-width="1.3" stroke-linecap="round" stroke-linejoin="round"></path>
    <path d="M19.5 15.209H24.075" stroke="#004165" stroke-width="1.3" stroke-linecap="round" stroke-linejoin="round"></path>
    <path d="M22.6302 5.31689C20.8612 3.9997 18.7364 3.23438 16.4489 3.23438C14.1614 3.23438 12.0366 3.9997 10.2676 5.31689" stroke="#004165" stroke-width="1.3" stroke-linecap="round" stroke-linejoin="round"></path>
    <path d="M20.3477 5.90472L22.6301 5.33203" stroke="#004165" stroke-width="1.3" stroke-linecap="round" stroke-linejoin="round"></path>
    <path d="M22.0723 3L22.6308 5.33241" stroke="#004165" stroke-width="1.3" stroke-linecap="round" stroke-linejoin="round"></path>
    <path d="M10.2676 27.1826C12.0366 28.4998 14.1614 29.2651 16.4489 29.2651C18.7364 29.2651 20.8612 28.4998 22.6302 27.1826" stroke="#004165" stroke-width="1.3" stroke-linecap="round" stroke-linejoin="round"></path>
    <path d="M12.55 26.5996L10.2676 27.1671" stroke="#004165" stroke-width="1.3" stroke-linecap="round" stroke-linejoin="round"></path>
    <path d="M10.8262 29.5004L10.2676 27.168" stroke="#004165" stroke-width="1.3" stroke-linecap="round" stroke-linejoin="round"></path>
    <path d="M19.5 17.291H24.075" stroke="#004165" stroke-width="1.3" stroke-linecap="round" stroke-linejoin="round"></path>
</svg>