<svg width="400" height="250" viewBox="0 0 400 250" fill="none" xmlns="http://www.w3.org/2000/svg">
<rect width="400" height="250" fill="white"/>
<path d="M189.837 167.586H224.938" stroke="#004165" stroke-width="2"/>
<path d="M251.996 147.841H290.753" stroke="#004165" stroke-width="2"/>
<path d="M303.259 123.641V172M133.661 123.12H118.574L185.685 69.5358H246.033L312.623 123.12H237.188L185.165 81.5013L133.661 123.12Z" stroke="#004165" stroke-width="2" stroke-linecap="round" stroke-linejoin="round"/>
<path d="M246.032 69.5358H185.685L251.235 123.12H312.103L246.032 69.5358Z" fill="#BFDEEE" stroke="#004165" stroke-width="2" stroke-linecap="round" stroke-linejoin="round"/>
<path d="M246.032 69.5358H185.685L251.235 123.12H312.103L246.032 69.5358Z" stroke="#004165" stroke-width="2" stroke-linecap="round" stroke-linejoin="round"/>
<path d="M175.8 160.057H149.789V210H175.8V160.057Z" stroke="#007DBA" stroke-width="2" stroke-linecap="round" stroke-linejoin="round"/>
<path d="M93.8639 199.168C91.9955 198.294 89.8884 197.791 87.6509 197.791C80.388 197.791 74.438 203.387 73.8338 210H141.465C141.373 204.332 136.881 199.405 130.657 198.579C128.382 198.276 126.167 198.57 124.179 199.313C124.181 199.253 124.189 199.196 124.189 199.133C124.189 191.344 117.401 185.029 109.024 185.029C100.651 185.029 93.8639 191.345 93.8639 199.133V199.168Z" fill="#004165"/>
<path d="M220.703 160.057H193.847C191.638 160.057 189.847 161.848 189.847 164.057V183.468H224.703V164.057C224.703 161.848 222.912 160.057 220.703 160.057Z" stroke="#004165" stroke-width="2" stroke-linecap="round" stroke-linejoin="round"/>
<path d="M251.755 166.82V144.288C251.755 142.079 253.546 140.288 255.755 140.288H286.773C288.982 140.288 290.773 142.075 290.773 144.284V166.82H251.755Z" stroke="#004165" stroke-width="2" stroke-linecap="round" stroke-linejoin="round"/>
<path d="M271.009 140.288V166.3" stroke="#004165" stroke-width="2" stroke-linecap="round" stroke-linejoin="round"/>
<path d="M133.661 186.589V123.12L185.165 81.5013L237.188 123.12V209.48" stroke="#004165" stroke-width="2" stroke-linecap="round" stroke-linejoin="round"/>
<rect x="147.423" y="63.0132" width="21.207" height="2.92511" fill="#F2FAFD"/>
<rect x="145.627" y="54.9692" width="23.9309" height="8.3238" fill="#BFDEEE" stroke="#004165" stroke-width="2" stroke-linecap="round" stroke-linejoin="round"/>
<rect x="188" y="183" width="38" height="8" fill="#BFDEEE" stroke="#004165" stroke-width="2" stroke-linecap="round" stroke-linejoin="round"/>
<rect x="249" y="167" width="45" height="8" fill="#BFDEEE" stroke="#004165" stroke-width="2" stroke-linecap="round" stroke-linejoin="round"/>
<path d="M147.187 63.293V100.23L168.517 83.062V63.293H147.187Z" stroke="#004165" stroke-width="2" stroke-linecap="round" stroke-linejoin="round"/>
<path d="M107.934 137.615C107.934 132.208 103.603 127.825 98.2598 127.825C94.7842 127.825 91.7385 129.681 90.0327 132.466C88.8978 125.831 83.1861 120.784 76.305 120.784C68.608 120.784 62.3689 127.098 62.3689 134.888C62.3689 135.456 62.4053 136.016 62.47 136.566C61.5953 136.146 60.6203 135.904 59.5873 135.904C55.866 135.904 52.8496 138.957 52.8496 142.723H36.9999" stroke="#007DBA" stroke-width="2" stroke-linecap="round" stroke-linejoin="round"/>
<path d="M363.881 66.5615C363.881 60.2534 358.746 55.1399 352.412 55.1399C348.291 55.1399 344.68 57.3052 342.658 60.5541C341.312 52.8136 334.541 46.9251 326.383 46.9251C317.258 46.9251 309.861 54.2914 309.861 63.3792C309.861 64.0427 309.904 64.6955 309.98 65.3377C308.943 64.8473 307.788 64.5651 306.563 64.5651C302.151 64.5651 298.575 68.1263 298.575 72.5198H279.784" stroke="#007DBA" stroke-width="2" stroke-linecap="round" stroke-linejoin="round"/>
<path fill-rule="evenodd" clip-rule="evenodd" d="M115.925 84.1674L119.861 88.1028L115.925 84.1674ZM115.925 54.5056L119.861 50.5685L115.925 54.5056ZM86.2633 54.5056L82.3262 50.5685L86.2633 54.5056ZM86.2633 84.1674L82.3262 88.1028L86.2633 84.1674ZM116.101 69.3357C116.101 61.0473 109.382 54.3299 101.093 54.3299C92.805 54.3299 86.0876 61.0473 86.0876 69.3357C86.0876 77.624 92.805 84.3431 101.093 84.3431C109.382 84.3431 116.101 77.624 116.101 69.3357V69.3357Z" stroke="#FFC937" stroke-width="2" stroke-linecap="round" stroke-linejoin="round"/>
<path d="M80.7779 69.3348H75.7577M101.093 89.6514V94.6714V89.6514ZM121.411 69.3348H126.429H121.411ZM101.093 49.02V44V49.02Z" stroke="#FFC937" stroke-width="2" stroke-linecap="round" stroke-linejoin="round"/>
<rect x="166.436" y="183.674" width="5.85022" height="5.85022" rx="2.92511" fill="#007DBA"/>
<path d="M173.018 116.396L197.15 116.396" stroke="#007DBA" stroke-width="2"/>
<path d="M197.65 116.357C197.65 123.253 192.06 128.843 185.165 128.843C178.269 128.843 172.679 123.253 172.679 116.357C172.679 109.462 178.269 103.872 185.165 103.872C192.06 103.872 197.65 109.462 197.65 116.357Z" stroke="#007DBA" stroke-width="2" stroke-linecap="round" stroke-linejoin="round"/>
<path d="M364 210L54 210" stroke="#004165" stroke-width="2" stroke-linecap="round" stroke-linejoin="round"/>
<path d="M49 210H36" stroke="#004165" stroke-width="2" stroke-linecap="round" stroke-linejoin="round"/>
<rect x="307" y="210" width="14" height="53" rx="1" transform="rotate(-90 307 210)" fill="white" stroke="#FFC937" stroke-width="2"/>
<rect x="301" y="196" width="14" height="53" rx="1" transform="rotate(-90 301 196)" fill="white" stroke="#FFC937" stroke-width="2"/>
<path d="M322.896 159.3C328.662 159.3 332.506 154.03 332.506 148.202V148.078C332.506 142.374 328.724 137.104 323.02 137.104C317.254 137.104 313.41 142.374 313.41 148.202V148.326C313.41 154.092 317.192 159.3 322.896 159.3ZM319.052 179.946C319.052 180.69 319.672 181.248 320.416 181.248C320.912 181.248 321.284 181 321.594 180.566L351.788 139.46C351.974 139.212 352.036 138.964 352.036 138.654C352.036 137.91 351.416 137.352 350.672 137.352C350.176 137.352 349.804 137.6 349.494 138.034L319.3 179.14C319.114 179.388 319.052 179.636 319.052 179.946ZM348.068 181.496C353.834 181.496 357.678 176.226 357.678 170.398V170.274C357.678 164.57 353.896 159.3 348.192 159.3C342.426 159.3 338.582 164.57 338.582 170.398V170.522C338.582 176.288 342.364 181.496 348.068 181.496ZM323.02 156.634C319.548 156.634 316.634 153.1 316.634 148.202V148.078C316.634 143.552 319.238 139.77 322.896 139.77C326.368 139.77 329.282 143.366 329.282 148.202V148.326C329.282 152.976 326.678 156.634 323.02 156.634ZM348.192 178.83C344.72 178.83 341.806 175.296 341.806 170.398V170.274C341.806 165.748 344.41 161.966 348.068 161.966C351.54 161.966 354.454 165.562 354.454 170.398V170.522C354.454 175.172 351.85 178.83 348.192 178.83Z" fill="#FFC937"/>
</svg>
