<svg width="32" height="32" viewBox="0 0 32 32" fill="none" xmlns="http://www.w3.org/2000/svg">
    <path fill-rule="evenodd" clip-rule="evenodd" d="M30.382 16.6584C30.2235 16.6584 30.0651 16.5975 29.9451 16.4765L15.9998 2.48503L2.05445 16.4765C1.81352 16.7175 1.42258 16.7184 1.18164 16.4775C0.939766 16.2365 0.939766 15.8456 1.17977 15.6046L15.5629 1.17438C15.7945 0.941874 16.206 0.941874 16.4376 1.17438L30.8198 15.6046C31.0607 15.8465 31.0598 16.2375 30.8188 16.4775C30.6979 16.5984 30.5404 16.6584 30.382 16.6584ZM15.3829 24.072C15.3829 24.4133 15.6585 24.6898 15.9998 24.6898C16.341 24.6898 16.6176 24.4133 16.6176 24.072V22.8973C18.0913 22.6076 19.207 21.3026 19.207 19.7407C19.207 17.9678 17.7679 16.525 15.9998 16.525C14.9123 16.525 14.0273 15.6362 14.0273 14.544C14.0273 13.4518 14.9123 12.5631 15.9998 12.5631C17.0873 12.5631 17.9723 13.4518 17.9723 14.544C17.9723 14.8853 18.2488 15.1619 18.5901 15.1619C18.9313 15.1619 19.2079 14.8853 19.2079 14.544C19.2079 12.9831 18.0923 11.678 16.6185 11.3883V10.2136C16.6185 9.87332 16.342 9.59675 16.0007 9.59675C15.6604 9.59675 15.3838 9.87238 15.3838 10.2136V11.3883C13.9101 11.678 12.7945 12.9831 12.7945 14.544C12.7945 16.3169 14.2335 17.7597 16.0016 17.7597C17.0891 17.7597 17.9741 18.6485 17.9741 19.7407C17.9741 20.8329 17.0891 21.7217 16.0016 21.7217C14.9141 21.7217 14.0291 20.8329 14.0291 19.7407C14.0291 19.4004 13.7526 19.1238 13.4113 19.1238C13.0701 19.1238 12.7935 19.3994 12.7935 19.7407C12.7935 21.3026 13.9091 22.6076 15.3829 22.8973V24.072ZM5.36945 29.8343H26.631C26.9713 29.8343 27.2479 29.5577 27.2498 29.2174V17.115C27.2498 16.7737 26.9732 16.4972 26.632 16.4972C26.2907 16.4972 26.0141 16.7737 26.0141 17.115V28.5996H5.98727V17.115C5.98727 16.7737 5.7107 16.4972 5.36945 16.4972C5.02914 16.4972 4.75258 16.7737 4.75258 17.115V29.2174C4.75258 29.5577 5.0282 29.8343 5.36945 29.8343ZM24.7616 7.25699C24.7616 7.59824 25.0382 7.87481 25.3795 7.87481C25.7207 7.87481 25.9973 7.59824 25.9954 7.25792V2.86566C25.9954 2.52534 25.7198 2.24877 25.3785 2.24877H21.0013C20.6601 2.24877 20.3835 2.52534 20.3835 2.86566C20.3835 3.20598 20.6601 3.48254 21.0013 3.48254H24.7616V7.25699Z" fill="#004165"></path>
    <path fill-rule="evenodd" clip-rule="evenodd" d="M30.382 16.6584C30.2235 16.6584 30.0651 16.5975 29.9451 16.4765L15.9998 2.48503L2.05445 16.4765C1.81352 16.7175 1.42258 16.7184 1.18164 16.4775C0.939766 16.2365 0.939766 15.8456 1.17977 15.6046L15.5629 1.17438C15.7945 0.941874 16.206 0.941874 16.4376 1.17438L30.8198 15.6046C31.0607 15.8465 31.0598 16.2375 30.8188 16.4775C30.6979 16.5984 30.5404 16.6584 30.382 16.6584ZM15.3829 24.072C15.3829 24.4133 15.6585 24.6898 15.9998 24.6898C16.341 24.6898 16.6176 24.4133 16.6176 24.072V22.8973C18.0913 22.6076 19.207 21.3026 19.207 19.7407C19.207 17.9678 17.7679 16.525 15.9998 16.525C14.9123 16.525 14.0273 15.6362 14.0273 14.544C14.0273 13.4518 14.9123 12.5631 15.9998 12.5631C17.0873 12.5631 17.9723 13.4518 17.9723 14.544C17.9723 14.8853 18.2488 15.1619 18.5901 15.1619C18.9313 15.1619 19.2079 14.8853 19.2079 14.544C19.2079 12.9831 18.0923 11.678 16.6185 11.3883V10.2136C16.6185 9.87332 16.342 9.59675 16.0007 9.59675C15.6604 9.59675 15.3838 9.87238 15.3838 10.2136V11.3883C13.9101 11.678 12.7945 12.9831 12.7945 14.544C12.7945 16.3169 14.2335 17.7597 16.0016 17.7597C17.0891 17.7597 17.9741 18.6485 17.9741 19.7407C17.9741 20.8329 17.0891 21.7217 16.0016 21.7217C14.9141 21.7217 14.0291 20.8329 14.0291 19.7407C14.0291 19.4004 13.7526 19.1238 13.4113 19.1238C13.0701 19.1238 12.7935 19.3994 12.7935 19.7407C12.7935 21.3026 13.9091 22.6076 15.3829 22.8973V24.072ZM5.36945 29.8343H26.631C26.9713 29.8343 27.2479 29.5577 27.2498 29.2174V17.115C27.2498 16.7737 26.9732 16.4972 26.632 16.4972C26.2907 16.4972 26.0141 16.7737 26.0141 17.115V28.5996H5.98727V17.115C5.98727 16.7737 5.7107 16.4972 5.36945 16.4972C5.02914 16.4972 4.75258 16.7737 4.75258 17.115V29.2174C4.75258 29.5577 5.0282 29.8343 5.36945 29.8343ZM24.7616 7.25699C24.7616 7.59824 25.0382 7.87481 25.3795 7.87481C25.7207 7.87481 25.9973 7.59824 25.9954 7.25792V2.86566C25.9954 2.52534 25.7198 2.24877 25.3785 2.24877H21.0013C20.6601 2.24877 20.3835 2.52534 20.3835 2.86566C20.3835 3.20598 20.6601 3.48254 21.0013 3.48254H24.7616V7.25699Z" fill="#004165"></path>
</svg>