<svg width="22px" height="22px" viewBox="0 0 22 22" version="1.1" xmlns="http://www.w3.org/2000/svg" xmlns:xlink="http://www.w3.org/1999/xlink">
    <!-- Generator: Sketch 48.2 (47327) - http://www.bohemiancoding.com/sketch -->
    <title>LinkedIn</title>
    <defs></defs>
    <g id="linkedin-Hi-fi-–-Basic-Solution" stroke="none" stroke-width="1" fill="none" fill-rule="evenodd">
        <g id="LinkedIn">
            <rect id="linkedin-Rectangle-3" fill="#FFFFFF" x="3" y="2" width="18" height="20"></rect>
            <path d="M19.388324,18.7463222 L16.013974,18.7463222 L16.013974,13.6411 C16.013974,12.4231556 15.9924853,10.8568778 14.2607529,10.8568778 C12.5043718,10.8568778 12.2370277,12.1842111 12.2370277,13.5537111 L12.2370277,18.7463222 L8.86646977,18.7463222 L8.86646977,8.24743333 L12.1011436,8.24743333 L12.1011436,9.68293333 L12.147281,9.68293333 C12.5972786,8.85732222 13.6982559,7.9871 15.3402416,7.9871 C18.7569369,7.9871 19.388324,10.1608222 19.388324,12.9884333 L19.388324,18.7463222 Z M5.06108268,6.81315556 C3.97716989,6.81315556 3.10308746,5.96554444 3.10308746,4.92054444 C3.10308746,3.87615556 3.97716989,3.02854444 5.06108268,3.02854444 C6.14057133,3.02854444 7.01718184,3.87615556 7.01718184,4.92054444 C7.01718184,5.96554444 6.14057133,6.81315556 5.06108268,6.81315556 Z M3.37106356,18.7463222 L6.74920573,18.7463222 L6.74920573,8.24743333 L3.37106356,8.24743333 L3.37106356,18.7463222 Z M1.67851637,-0.000122222222 C0.752608363,-0.000122222222 -0.000126403824,0.709988889 -0.000126403824,1.58632222 L-0.000126403824,20.4128222 C-0.000126403824,21.2885444 0.752608363,21.9998778 1.67851637,21.9998778 L20.3169331,21.9998778 C21.2447372,21.9998778 22,21.2885444 22,20.4128222 L22,1.58632222 C22,0.709988889 21.2447372,-0.000122222222 20.3169331,-0.000122222222 L1.67851637,-0.000122222222 Z" id="linkedin-Fill-5" fill="#0077B6"></path>
        </g>
    </g>
</svg>