<svg width="33" height="33" viewBox="0 0 33 33" fill="none" xmlns="http://www.w3.org/2000/svg">
    <path fill-rule="evenodd" clip-rule="evenodd" d="M19.4338 9.69505H13.8329C13.5199 9.69505 13.2499 9.47405 13.1879 9.16705C12.9939 8.20805 11.9339 6.90705 11.2319 6.04605C10.8579 5.58705 10.5629 5.22405 10.4019 4.94005C9.98792 4.21005 10.0319 3.26505 10.5119 2.58805C10.8639 2.09505 11.3889 1.81305 11.9549 1.81305C12.2179 1.81305 12.4719 1.87405 12.7109 1.99305L14.5688 2.92605L14.9158 1.90805C15.1838 1.12705 15.8578 0.623047 16.6328 0.623047C17.4078 0.623047 18.0818 1.12605 18.3478 1.90605L18.6968 2.92705L20.5527 1.99605C20.7917 1.87605 21.0477 1.81505 21.3107 1.81505C21.8747 1.81505 22.3987 2.09505 22.7487 2.58305C23.2327 3.26605 23.2777 4.21405 22.8627 4.94405C22.7028 5.22689 22.408 5.58865 22.0343 6.0473C21.3333 6.9083 20.2727 8.21105 20.0777 9.16905C20.0167 9.47505 19.7467 9.69505 19.4338 9.69505ZM13.0009 12.393H20.2657C20.6287 12.393 20.9237 12.098 20.9237 11.734C20.9237 11.37 20.6297 11.075 20.2657 11.075H13.0009C12.6369 11.075 12.3419 11.37 12.3419 11.734C12.3419 12.098 12.6369 12.393 13.0009 12.393ZM5.5 24.547C5.5 30.057 9.03694 32.623 16.6328 32.623C24.2277 32.623 27.7656 30.057 27.7656 24.547C27.7656 20.942 24.2737 16.301 20.8977 13.896C20.7867 13.817 20.6527 13.774 20.5157 13.774H12.7509C12.6139 13.774 12.4799 13.816 12.3689 13.896C8.99194 16.3 5.5 20.942 5.5 24.547ZM6.81698 24.546C6.81698 21.467 9.97492 17.289 12.9639 15.09H20.3017C23.2907 17.289 26.4486 21.466 26.4486 24.546C26.4486 27.888 25.2826 31.305 16.6328 31.305C7.98296 31.305 6.81698 27.889 6.81698 24.546ZM16.6328 29.251C16.2688 29.251 15.9738 28.956 15.9738 28.593V27.825C14.7728 27.537 13.8789 26.479 13.8789 25.221C13.8789 24.857 14.1738 24.562 14.5378 24.562C14.9018 24.562 15.1958 24.857 15.1958 25.221C15.1958 25.973 15.8398 26.586 16.6318 26.586C17.4238 26.586 18.0678 25.974 18.0678 25.221C18.0678 24.468 17.4228 23.856 16.6318 23.856C15.1138 23.856 13.8789 22.653 13.8789 21.174C13.8789 19.917 14.7728 18.858 15.9738 18.57V17.803C15.9738 17.439 16.2688 17.145 16.6328 17.145C16.9968 17.145 17.2918 17.44 17.2918 17.803V18.571C18.4928 18.859 19.3868 19.917 19.3868 21.175C19.3868 21.539 19.0918 21.834 18.7288 21.834C18.3648 21.834 18.0698 21.539 18.0698 21.175C18.0698 20.423 17.4248 19.811 16.6338 19.811C15.8418 19.811 15.1978 20.423 15.1978 21.175C15.1978 21.927 15.8418 22.54 16.6338 22.54C18.1518 22.54 19.3868 23.743 19.3868 25.222C19.3868 26.479 18.4928 27.538 17.2918 27.826V28.594C17.2918 28.957 16.9968 29.251 16.6328 29.251ZM18.9398 8.37805H14.3258C13.9148 7.25505 12.9699 6.09405 12.2519 5.21505C11.9429 4.83605 11.6519 4.47905 11.5459 4.29105C11.3869 4.01005 11.4039 3.60605 11.5839 3.35205C11.7289 3.14905 11.9379 3.08005 12.1209 3.17105L14.6518 4.44205C14.8218 4.52705 15.0208 4.53505 15.1968 4.46305C15.3728 4.39105 15.5098 4.24605 15.5708 4.06605L16.1618 2.33405C16.2448 2.09105 16.4258 1.94005 16.6328 1.94005C16.8398 1.94005 17.0198 2.09005 17.1028 2.33105L17.6948 4.06505C17.7558 4.24505 17.8928 4.39005 18.0688 4.46205C18.2448 4.53405 18.4438 4.52605 18.6138 4.44105L21.1447 3.17105C21.3317 3.07705 21.5377 3.15005 21.6777 3.34505C21.8637 3.60805 21.8807 4.00605 21.7187 4.29205C21.613 4.4786 21.3231 4.83434 21.0159 5.21134L21.0137 5.21405C20.2968 6.09402 19.3507 7.25515 18.9398 8.37805Z" fill="#004165"></path>
    <path fill-rule="evenodd" clip-rule="evenodd" d="M19.4338 9.69505H13.8329C13.5199 9.69505 13.2499 9.47405 13.1879 9.16705C12.9939 8.20805 11.9339 6.90705 11.2319 6.04605C10.8579 5.58705 10.5629 5.22405 10.4019 4.94005C9.98792 4.21005 10.0319 3.26505 10.5119 2.58805C10.8639 2.09505 11.3889 1.81305 11.9549 1.81305C12.2179 1.81305 12.4719 1.87405 12.7109 1.99305L14.5688 2.92605L14.9158 1.90805C15.1838 1.12705 15.8578 0.623047 16.6328 0.623047C17.4078 0.623047 18.0818 1.12605 18.3478 1.90605L18.6968 2.92705L20.5527 1.99605C20.7917 1.87605 21.0477 1.81505 21.3107 1.81505C21.8747 1.81505 22.3987 2.09505 22.7487 2.58305C23.2327 3.26605 23.2777 4.21405 22.8627 4.94405C22.7028 5.22689 22.408 5.58865 22.0343 6.0473C21.3333 6.9083 20.2727 8.21105 20.0777 9.16905C20.0167 9.47505 19.7467 9.69505 19.4338 9.69505ZM13.0009 12.393H20.2657C20.6287 12.393 20.9237 12.098 20.9237 11.734C20.9237 11.37 20.6297 11.075 20.2657 11.075H13.0009C12.6369 11.075 12.3419 11.37 12.3419 11.734C12.3419 12.098 12.6369 12.393 13.0009 12.393ZM5.5 24.547C5.5 30.057 9.03694 32.623 16.6328 32.623C24.2277 32.623 27.7656 30.057 27.7656 24.547C27.7656 20.942 24.2737 16.301 20.8977 13.896C20.7867 13.817 20.6527 13.774 20.5157 13.774H12.7509C12.6139 13.774 12.4799 13.816 12.3689 13.896C8.99194 16.3 5.5 20.942 5.5 24.547ZM6.81698 24.546C6.81698 21.467 9.97492 17.289 12.9639 15.09H20.3017C23.2907 17.289 26.4486 21.466 26.4486 24.546C26.4486 27.888 25.2826 31.305 16.6328 31.305C7.98296 31.305 6.81698 27.889 6.81698 24.546ZM16.6328 29.251C16.2688 29.251 15.9738 28.956 15.9738 28.593V27.825C14.7728 27.537 13.8789 26.479 13.8789 25.221C13.8789 24.857 14.1738 24.562 14.5378 24.562C14.9018 24.562 15.1958 24.857 15.1958 25.221C15.1958 25.973 15.8398 26.586 16.6318 26.586C17.4238 26.586 18.0678 25.974 18.0678 25.221C18.0678 24.468 17.4228 23.856 16.6318 23.856C15.1138 23.856 13.8789 22.653 13.8789 21.174C13.8789 19.917 14.7728 18.858 15.9738 18.57V17.803C15.9738 17.439 16.2688 17.145 16.6328 17.145C16.9968 17.145 17.2918 17.44 17.2918 17.803V18.571C18.4928 18.859 19.3868 19.917 19.3868 21.175C19.3868 21.539 19.0918 21.834 18.7288 21.834C18.3648 21.834 18.0698 21.539 18.0698 21.175C18.0698 20.423 17.4248 19.811 16.6338 19.811C15.8418 19.811 15.1978 20.423 15.1978 21.175C15.1978 21.927 15.8418 22.54 16.6338 22.54C18.1518 22.54 19.3868 23.743 19.3868 25.222C19.3868 26.479 18.4928 27.538 17.2918 27.826V28.594C17.2918 28.957 16.9968 29.251 16.6328 29.251ZM18.9398 8.37805H14.3258C13.9148 7.25505 12.9699 6.09405 12.2519 5.21505C11.9429 4.83605 11.6519 4.47905 11.5459 4.29105C11.3869 4.01005 11.4039 3.60605 11.5839 3.35205C11.7289 3.14905 11.9379 3.08005 12.1209 3.17105L14.6518 4.44205C14.8218 4.52705 15.0208 4.53505 15.1968 4.46305C15.3728 4.39105 15.5098 4.24605 15.5708 4.06605L16.1618 2.33405C16.2448 2.09105 16.4258 1.94005 16.6328 1.94005C16.8398 1.94005 17.0198 2.09005 17.1028 2.33105L17.6948 4.06505C17.7558 4.24505 17.8928 4.39005 18.0688 4.46205C18.2448 4.53405 18.4438 4.52605 18.6138 4.44105L21.1447 3.17105C21.3317 3.07705 21.5377 3.15005 21.6777 3.34505C21.8637 3.60805 21.8807 4.00605 21.7187 4.29205C21.613 4.4786 21.3231 4.83434 21.0159 5.21134L21.0137 5.21405C20.2968 6.09402 19.3507 7.25515 18.9398 8.37805Z" fill="#004165"></path>
</svg>