<svg width="22px" height="22px" viewBox="0 0 22 22" version="1.1" xmlns="http://www.w3.org/2000/svg" xmlns:xlink="http://www.w3.org/1999/xlink">
    <!-- Generator: Sketch 48.2 (47327) - http://www.bohemiancoding.com/sketch -->
    <title>Youtube</title>
    <defs>
        <polygon id="youtube-path-1" points="3.57954545e-05 0 21 0 21 14.9999758 3.57954545e-05 14.9999758"></polygon>
    </defs>
    <g id="youtube-Hi-fi-–-Basic-Solution" stroke="none" stroke-width="1" fill="none" fill-rule="evenodd">
        <g id="Youtube">
            <g id="youtube-Page-1" transform="translate(0.000000, 4.000000)">
                <g id="youtube-Group-3">
                    <mask id="youtube-mask-2" fill="white">
                        <use xlink:href="#youtube-path-1"></use>
                    </mask>
                    <g id="youtube-Clip-2"></g>
                    <path d="M20.5611835,2.34227419 C20.3196835,1.42025806 19.6081892,0.694209677 18.7044733,0.447798387 C17.0669506,-2.41935484e-05 10.5000358,-2.41935484e-05 10.5000358,-2.41935484e-05 C10.5000358,-2.41935484e-05 3.93312102,-2.41935484e-05 2.29547898,0.447798387 C1.39188239,0.694209677 0.68026875,1.42025806 0.43876875,2.34227419 C3.57954545e-05,4.01332258 3.57954545e-05,7.49997581 3.57954545e-05,7.49997581 C3.57954545e-05,7.49997581 3.57954545e-05,10.9865081 0.43876875,12.6577984 C0.68026875,13.5796935 1.39188239,14.3057419 2.29547898,14.5522742 C3.93312102,14.9999758 10.5000358,14.9999758 10.5000358,14.9999758 C10.5000358,14.9999758 17.0669506,14.9999758 18.7044733,14.5522742 C19.6081892,14.3057419 20.3196835,13.5796935 20.5611835,12.6577984 C21.0000358,10.9865081 21.0000358,7.49997581 21.0000358,7.49997581 C21.0000358,7.49997581 21.0000358,4.01332258 20.5611835,2.34227419" id="youtube-Fill-1" fill="#FF0000" mask="url(#mask-2)"></path>
                </g>
                <polygon id="youtube-Fill-4" fill="#FFFFFF" points="8 10 13 7.00011464 8 4"></polygon>
            </g>
        </g>
    </g>
</svg>